Coordinates
version=1
nRows=8
nColumns=40
inDegrees=yes

Units are S.I. units (second, meters, Newtons, ...)
Angles are in degrees.

endheader
time	pelvis_tilt	pelvis_list	pelvis_rotation	pelvis_tx	pelvis_ty	pelvis_tz	hip_flexion_r	hip_adduction_r	hip_rotation_r	knee_angle_r	knee_angle_r_beta	ankle_angle_r	subtalar_angle_r	mtp_angle_r	hip_flexion_l	hip_adduction_l	hip_rotation_l	knee_angle_l	knee_angle_l_beta	ankle_angle_l	subtalar_angle_l	mtp_angle_l	lumbar_extension	lumbar_bending	lumbar_rotation	arm_flex_r	arm_add_r	arm_rot_r	elbow_flex_r	pro_sup_r	wrist_flex_r	wrist_dev_r	arm_flex_l	arm_add_l	arm_rot_l	elbow_flex_l	pro_sup_l	wrist_flex_l	wrist_dev_l
     12.78000000	     -2.11928915	     -2.20199347	     -1.65839740	      0.86892801	      0.93527265	      0.41468304	     29.62609020	    -10.35320957	     -9.93860882	     63.64033043	     63.64033043	     10.65936203	    -17.83175013	      6.75904252	     10.94953213	     -1.21727194	    -13.71460991	     17.23306000	     17.23306000	     12.09853665	     -5.57271587	     -6.64266821	     -7.99331170	      1.06427058	      0.33198499	      2.39163864	    -13.32183729	     -2.11910104	     41.09381005	     45.67571293	      0.00000000	      0.00000000	     18.33562780	    -12.86916007	     -5.84475325	     38.57145263	     45.49598907	      0.00000000	      0.00000000
     12.79178571	     -2.12032206	     -2.30210617	     -1.71624783	      0.86819902	      0.93540306	      0.41461790	     30.42048707	    -10.07991543	     -9.56862366	     62.00848966	     62.00848966	     10.42236781	    -17.51727035	      6.72398599	     10.28444784	     -1.26225217	    -13.72425056	     16.88632266	     16.88632266	     12.37630315	     -5.38595574	     -6.77310242	     -7.99034536	      1.26767541	      0.38056774	      0.18628471	    -13.51471578	     -2.04662707	     39.58484415	     45.71618226	      0.00000000	      0.00000000	     19.40673251	    -12.97604338	     -5.98482447	     39.60897052	     45.53857680	      0.00000000	      0.00000000
     12.80357143	     -2.01296798	     -2.31612440	     -1.85730684	      0.86751589	      0.93560220	      0.41461658	     31.01554953	     -9.84082948	     -9.07440386	     60.23298001	     60.23298001	     10.03012342	    -17.17166544	      6.34286243	      9.49811931	     -1.24078310	    -13.96331990	     16.55244243	     16.55244243	     12.63998962	     -5.06247563	     -7.02286782	     -8.14779656	      1.35155287	      0.77579954	     -1.85137326	    -13.70175186	     -2.14510971	     37.38366632	     45.79550726	      0.00000000	      0.00000000	     20.49478655	    -12.97876498	     -6.17465745	     41.31271088	     45.59582990	      0.00000000	      0.00000000
     12.81535714	     -1.95046163	     -2.34965453	     -1.95918259	      0.86682609	      0.93572156	      0.41467440	     31.51828412	     -9.57572654	     -8.65076316	     58.28151906	     58.28151906	      9.46687438	    -16.79403943	      5.71347265	      8.77379336	     -1.24893005	    -14.18522541	     16.21644374	     16.21644374	     12.90338284	     -4.63186993	     -7.31543098	     -8.29934006	      1.43628626	      0.84958579	     -3.48958768	    -13.66240720	     -2.47908588	     34.83938735	     45.90693884	      0.00000000	      0.00000000	     21.23380333	    -13.18002716	     -6.40835678	     43.27480452	     45.65998376	      0.00000000	      0.00000000
     12.82714286	     -1.98323154	     -2.38967656	     -2.03163687	      0.86614862	      0.93566900	      0.41475831	     31.97598054	     -9.34397952	     -8.37568892	     56.12888816	     56.12888816	      8.51727914	    -16.38840729	      4.00189125	      8.16660738	     -1.28025376	    -14.48671513	     15.89724079	     15.89724079	     13.13731258	     -4.14259622	     -7.68490995	     -8.25542605	      1.55969873	      0.17356472	     -4.05057129	    -13.26488817	     -3.69624234	     30.81869285	     46.14866985	      0.00000000	      0.00000000	     21.13037766	    -13.83692997	     -6.83496933	     46.30316610	     45.77262944	      0.00000000	      0.00000000
     12.83892857	     -1.89673270	     -2.49605683	     -2.11650714	      0.86555004	      0.93579394	      0.41497072	     32.21191252	     -8.95468211	     -8.04347774	     53.89791148	     53.89791148	      8.08494730	    -15.71792865	      4.05810251	      7.40727874	     -1.33644474	    -14.53534915	     15.52808417	     15.52808417	     13.43459122	     -3.97527044	     -7.72189897	     -8.34975919	      1.76839238	      0.22237490	     -5.80190008	    -13.37999474	     -3.84651212	     29.53334586	     46.19935941	      0.00000000	      0.00000000	     22.08160751	    -13.94934841	     -7.04649213	     47.48049200	     45.82368850	      0.00000000	      0.00000000
     12.85071429	     -1.99830034	     -2.54077741	     -2.16224191	      0.86476417	      0.93557717	      0.41525977	     32.60240500	     -8.62754007	     -7.74003261	     51.60172106	     51.60172106	      7.69960261	    -14.84928176	      4.17123608	      6.90104761	     -1.34744543	    -14.59845369	     15.20471426	     15.20471426	     13.70292316	     -3.78236597	     -7.80249117	     -8.33221364	      1.92582047	      0.07772364	     -7.49325276	    -13.40067498	     -3.92938970	     28.46092091	     46.23714251	      0.00000000	      0.00000000	     22.92536634	    -14.30817335	     -7.25627606	     48.49596537	     45.86711042	      0.00000000	      0.00000000
     12.86250000	     -1.90493750	     -2.53856665	     -2.30195914	      0.86421874	      0.93564737	      0.41575754	     32.58377869	     -8.31521189	     -7.49625742	     48.97611011	     48.97611011	      6.68010267	    -14.01370369	      2.38920533	      6.08554217	     -1.33248891	    -14.95166844	     14.75603820	     14.75603820	     13.90265943	     -3.18749299	     -8.05567923	     -8.53475823	      1.92242675	     -0.15788850	     -8.03861031	    -13.16531183	     -5.30190739	     25.21324879	     46.49502007	      0.00000000	      0.00000000	     22.56200905	    -14.73212735	     -7.82992698	     52.75901000	     46.01456590	      0.00000000	      0.00000000
